<?xml version="1.0" encoding="utf-8"?>
<!-- Generator: Adobe Illustrator 18.0.0, SVG Export Plug-In . SVG Version: 6.00 Build 0)  -->
<!DOCTYPE svg PUBLIC "-//W3C//DTD SVG 1.1//EN" "http://www.w3.org/Graphics/SVG/1.1/DTD/svg11.dtd">
<svg version="1.1" id="Layer_1" xmlns="http://www.w3.org/2000/svg" xmlns:xlink="http://www.w3.org/1999/xlink" x="0px" y="0px"
	 viewBox="0 0 259.9 32" enable-background="new 0 0 259.9 32" xml:space="preserve">
<g>
	<path fill="#A21C36" d="M0,14.1c0-4.1,3.3-7.4,7.4-7.4c4.1,0,7.4,3.3,7.4,7.4c0,0.5,0,0.9-0.1,1.3c-1.2-0.5-2.5-0.8-3.8-0.8
		c-3.6,0-6.7,1.9-8.5,4.8C0.9,18.1,0,16.2,0,14.1 M12.4,24.6c0-2.4,0.8-4.6,2.2-6.3c-1.1-0.7-2.4-1.1-3.8-1.1
		c-4.1,0-7.4,3.3-7.4,7.4c0,4.1,3.3,7.4,7.4,7.4c1.4,0,2.7-0.4,3.8-1.1C13.2,29.2,12.4,27,12.4,24.6 M25.7,24.1
		c-3.6,0-6.7-1.9-8.5-4.8c-1.4,1.3-2.3,3.2-2.3,5.3c0,4.1,3.3,7.4,7.4,7.4c4.1,0,7.4-3.3,7.4-7.4c0-0.5,0-0.9-0.1-1.3
		C28.4,23.8,27.1,24.1,25.7,24.1 M26.4,6.8c0,0.2,0,0.4,0,0.6c0,4.6-3.2,8.6-7.5,9.6c1.1,2.7,3.7,4.5,6.8,4.5c4.1,0,7.4-3.3,7.4-7.4
		C33.1,10.3,30.2,7.2,26.4,6.8 M16.5,0c-3.1,0-5.7,1.9-6.8,4.5c4.3,1.1,7.6,5,7.6,9.6c0,0.2,0,0.4,0,0.6c3.7-0.4,6.6-3.5,6.6-7.3
		C23.9,3.3,20.6,0,16.5,0"/>
	<path fill="#231F20" d="M52.1,16.5c-0.1,0.1-0.8,0.4-1.2,0.7c-0.2,0.1-0.1,0.3-0.1,0.4c0.6,1.2,3.1,5.5,4.7,7.3
		c0.8,1,1.7,1.4,2.7,1.6c0.3,0.1,0.6,0.3,0.6,0.4c0,0.2-0.3,0.4-0.5,0.5c-0.5,0.2-1.7,0.2-2.1,0.2c-2.8,0-4-1.1-4.7-2
		c-0.9-1.2-2.5-3.7-3.8-6c-0.3-0.5-0.7-1.2-1-1.3c-0.2-0.2-0.9-0.4-1.5-0.4c-0.1,0-0.3,0.2-0.3,0.3c-0.1,0.6,0,4.8,0.1,6.2
		c0.1,1.3,0.3,1.6,1.7,2c0.5,0.2,0.7,0.4,0.7,0.6c0,0.3-0.6,0.5-1,0.5c-1.1,0-2.5-0.2-4-0.2c-1.1,0-2.6,0.1-3,0.1
		c-0.8,0-1-0.2-1-0.5c0-0.2,0.3-0.4,0.7-0.5c1.4-0.4,1.8-0.8,1.9-1.8c0.2-2.4,0.2-5,0.2-7.7c0-3.3-0.1-6-0.2-6.8
		c-0.1-0.7-0.3-1.2-1.8-1.6c-0.4-0.1-0.8-0.3-0.8-0.6c0-0.2,0.4-0.4,0.9-0.4h2.3c1.2,0,3.7-0.2,5.4-0.2c1.4,0,3.9,0.1,5.4,1.4
		c1,0.8,1.7,2.3,1.7,3.7C54.3,14.2,53.5,15.4,52.1,16.5 M49.1,9.6c-0.7-0.7-1.7-1.1-2.5-1.1c-0.1,0-0.9,0.1-1.2,0.2
		C45.2,8.8,45,9.2,45,9.3c-0.1,1.1-0.2,6.5-0.1,7.3c0,0.2,0.2,0.4,0.4,0.4c1.6,0,3-0.5,3.4-0.7c0.8-0.6,1.7-1.7,1.7-3.5
		C50.4,12,50.1,10.6,49.1,9.6"/>
	<path fill="#231F20" d="M80.1,17.2c0,4.1-1.7,6.7-3.9,8.5c-1.8,1.4-4.4,2.2-6.8,2.2c-3.3,0-6.1-1.2-8.1-3.3
		c-1.7-1.8-2.7-4.3-2.7-7.1c0-3.8,1.7-6.2,4-8.1c1.4-1.1,4-2.2,6.6-2.2C76.1,7.1,80.1,12.2,80.1,17.2 M65,9.7c-1.1,1-2.2,3.3-2.2,7
		c0,4.8,2.9,10,7.5,10c1.7,0,2.8-0.9,3.2-1.3c1.3-1.3,2.4-4,2.4-7.3c0-2.5-1-6.2-3.2-8.3c-1.1-0.9-2.7-1.7-4.1-1.7
		C67.1,8.2,65.7,9,65,9.7"/>
	<path fill="#231F20" d="M94.7,7.6c0.1,0,0.4,0.5,0.4,0.6c0,0.4,0.3,2.8,0.3,2.9c0,0.5-0.1,0.8-0.3,0.8c-0.2,0-0.7-0.3-0.9-0.7
		c-0.3-1-1-1.9-1.3-2.2c-0.7-0.6-1.5-0.9-2.5-0.9c-1.5,0-3.2,1.2-3.2,3.2c0,1.8,1.4,2.8,4.2,4.6c3.8,2.3,4.6,4.3,4.6,6.2
		c0,1.6-0.9,3.5-2.7,4.6c-1.1,0.7-2.9,1.1-4.4,1.1c-1.8,0-3.2-0.3-4.5-0.8c-0.3-0.1-0.8-0.8-0.8-0.9c-0.2-1.1-0.5-2.4-0.5-3.3
		c0-0.2,0.3-0.7,0.5-0.7c0.2,0,0.7,0.7,1.2,1.7c0.9,1.9,2.7,2.9,4.3,2.9c1.4,0,3.2-1.1,3.2-3.1c0-1.3-0.7-2.6-3.5-4.4
		c-3.2-2.1-4.9-3.8-4.9-6.6c0-1.8,0.9-3.3,1.9-4.1c1-0.9,2.5-1.5,4.9-1.5C92.2,7.1,93.8,7.4,94.7,7.6"/>
	<path fill="#231F20" d="M115,7.6c0.7,0.2,1.5,0.4,2.2,0.5c0.2,0,0.5,0.4,0.5,0.8c0,0.9,0.1,2,0.2,2.9c0,0.7-0.2,1.2-0.5,1.2
		c-0.2,0-0.4-0.4-0.6-0.8c-0.3-1-0.8-1.8-1.3-2.2c-1.3-1.1-2.9-1.8-4.6-1.8c-4.9,0-7.3,3.9-7.3,8.7c0,2.1,0.4,3.9,1.1,5.3
		c1.7,3.4,4.5,4.6,7,4.6c0.4,0,1.9-0.1,3-0.7c1.2-0.7,2-1.6,2.7-2.8c0.4-0.7,0.6-1,0.8-1c0.3,0,0.3,0.8,0.2,1.2
		c-0.2,0.8-0.7,2.1-0.9,2.7c-0.1,0.3-0.7,0.8-1.1,1c-0.4,0.2-2.6,0.9-5.4,0.9c-4.6,0-7.9-2.1-9.2-3.5c-1.2-1.4-2.6-3.5-2.6-7
		c0-3.8,2.1-6.4,3.4-7.5c2.6-2.2,5.9-2.8,8.4-2.8C112.4,7.1,113.9,7.3,115,7.6"/>
	<path fill="#231F20" d="M142,17.2c0,4.1-1.7,6.7-3.9,8.5c-1.8,1.4-4.4,2.2-6.8,2.2c-3.3,0-6.1-1.2-8.1-3.3
		c-1.7-1.8-2.7-4.3-2.7-7.1c0-3.8,1.7-6.2,4-8.1c1.4-1.1,4-2.2,6.6-2.2C138,7.1,142,12.2,142,17.2 M126.9,9.7c-1.1,1-2.2,3.3-2.2,7
		c0,4.8,2.9,10,7.5,10c1.7,0,2.8-0.9,3.2-1.3c1.3-1.3,2.4-4,2.4-7.3c0-2.5-1-6.2-3.2-8.3c-1.1-0.9-2.7-1.7-4.1-1.7
		C129,8.2,127.6,9,126.9,9.7"/>
	<path fill="#231F20" d="M144.2,7.5c0.7,0,3.1,0.1,4.7,0.1c0.2,0,0.6,0.3,0.7,0.4c0.5,0.6,1.3,1.5,2.6,3c1.5,1.9,7.6,8.2,9.3,9.9
		c0.2,0.2,0.3-0.1,0.3-0.2c0.2-0.9,0.1-4.4,0.1-7c0-1.1-0.1-2.5-0.2-3.3c-0.1-0.6-0.4-1.3-1.9-1.7c-0.6-0.2-1-0.3-1-0.7
		c0-0.2,0.3-0.4,0.9-0.4c0.8,0,1.5,0,2.1,0c1.5,0,2.8-0.2,3.6-0.2c0.5,0,0.7,0.2,0.7,0.4c0,0.2-0.2,0.5-0.8,0.6
		c-1.6,0.5-1.8,1.1-1.9,2.3c-0.1,1.1-0.3,9-0.3,11.6c0,1.3,0.2,4,0.2,4.9c0,0.3-0.3,0.6-0.5,0.6c-0.7,0-1.4-0.8-1.7-1.2
		c-0.6-0.8-1.2-1.5-2-2.5c-2.9-3.6-8-8.9-10.8-12.2c-0.2-0.2-0.3,0.1-0.3,0.2c-0.1,0.8-0.1,1.6-0.2,4c0,4.3-0.1,6.7,0.1,8.2
		c0.1,1,0.5,1.5,2,2c0.7,0.2,0.9,0.4,0.9,0.6c0,0.3-0.4,0.5-1,0.5c-0.9,0-1.6-0.1-2.7-0.1c-0.7,0-2.4,0.1-3,0.1
		c-0.4,0-0.8-0.2-0.8-0.4c0-0.3,0.4-0.5,0.7-0.6c1.4-0.4,2.2-0.7,2.3-3c0.2-3.5,0.6-9.5,0.6-11.7c0-1.2-0.1-1.6-0.2-1.7
		c-0.6-0.7-0.8-1.1-2.4-1.5c-0.3-0.1-0.8-0.3-0.8-0.5C143.2,7.7,143.6,7.5,144.2,7.5"/>
	<path fill="#231F20" d="M184.2,7.7c0.5,0.1,1.1,0.2,1.4,0.2c0.1,0,0.3,0.3,0.4,0.7c0,0.9,0.5,2.5,0.5,3.7c0,0.4-0.2,0.8-0.5,0.8
		c-0.2,0-0.4-0.3-0.6-0.8c-0.2-0.6-0.7-1.6-1.2-2.2c-0.7-0.8-2.5-2.1-5-2.1c-4.7,0-7.5,4.2-7.5,9.1c0,2.2,0.4,4,1.3,5.6
		c1.3,2.4,3.8,4,6.6,4c0.4,0,1.3-0.2,2-0.6c0.4-0.2,0.7-1.1,0.7-2.2c0-1.1,0-2.4-0.1-2.8c-0.2-0.7-0.4-1.3-2.5-1.5
		c-0.5,0-0.9-0.3-0.9-0.6c0-0.2,0.4-0.4,1.1-0.4c1.2,0,2.9,0.1,3.7,0.1c0.7,0,2.5-0.2,3.6-0.2c0.6,0,0.8,0.2,0.8,0.5
		c0,0.2-0.3,0.5-0.7,0.6c-1.1,0.3-1,0.7-1.1,1.1c-0.1,0.4-0.2,2.6-0.2,3.9c0,0.4,0.1,0.6,0.5,0.9c0.2,0.2,0.3,0.3,0.3,0.5
		c0,0.2-0.3,0.4-0.5,0.5c-0.5,0.2-1.6,0.4-2.8,0.7c-1.3,0.3-3.8,0.6-4.6,0.6c-3.4,0-6.5-1-8.3-2.7c-1.4-1.4-3.2-3.6-3.2-7.8
		c0-3.2,1.3-5.6,3.5-7.5c2-1.7,5.1-2.8,8.3-2.8C181.2,7.1,183,7.4,184.2,7.7"/>
	<path fill="#231F20" d="M203.8,16.5c-0.1,0.1-0.8,0.4-1.2,0.7c-0.2,0.1-0.1,0.3-0.1,0.4c0.6,1.2,3.1,5.5,4.7,7.3
		c0.8,1,1.7,1.4,2.7,1.6c0.3,0.1,0.6,0.3,0.6,0.4c0,0.2-0.3,0.4-0.5,0.5c-0.5,0.2-1.7,0.2-2.1,0.2c-2.8,0-4-1.1-4.7-2
		c-0.9-1.2-2.5-3.7-3.8-6c-0.3-0.5-0.7-1.2-1-1.3c-0.2-0.2-0.9-0.4-1.5-0.4c-0.1,0-0.3,0.2-0.3,0.3c-0.1,0.6,0,4.8,0.1,6.2
		c0.1,1.3,0.3,1.6,1.7,2c0.5,0.2,0.7,0.4,0.7,0.6c0,0.3-0.6,0.5-1,0.5c-1.1,0-2.5-0.2-4-0.2c-1.1,0-2.6,0.1-3,0.1
		c-0.8,0-1-0.2-1-0.5c0-0.2,0.3-0.4,0.7-0.5c1.4-0.4,1.8-0.8,1.9-1.8c0.2-2.4,0.2-5,0.2-7.7c0-3.3-0.1-6-0.2-6.8
		c-0.1-0.7-0.3-1.2-1.8-1.6c-0.4-0.1-0.8-0.3-0.8-0.6c0-0.2,0.4-0.4,0.9-0.4h2.3c1.2,0,3.7-0.2,5.4-0.2c1.4,0,3.9,0.1,5.4,1.4
		c1,0.8,1.7,2.3,1.7,3.7C206,14.2,205.2,15.4,203.8,16.5 M200.8,9.6c-0.7-0.7-1.7-1.1-2.5-1.1c-0.1,0-0.9,0.1-1.2,0.2
		c-0.2,0.1-0.3,0.5-0.4,0.7c-0.1,1.1-0.2,6.5-0.1,7.3c0,0.2,0.2,0.4,0.4,0.4c1.6,0,3-0.5,3.4-0.7c0.8-0.6,1.7-1.7,1.7-3.5
		C202.1,12,201.8,10.6,200.8,9.6"/>
	<path fill="#231F20" d="M223.9,7.6c1,0,2.3-0.1,2.7-0.2c0.1,0,0.3,0.2,0.4,0.4c0,0.6,0,2.7,0,3.3c0,0.4-0.2,0.9-0.5,0.9
		c-0.3,0-0.5-0.5-0.6-0.8c-0.4-1.7-1.3-2.2-2-2.3c-0.6-0.1-1.9-0.2-4.3-0.2c-0.1,0-0.4,0.1-0.4,0.9c-0.1,0.8-0.2,5.1-0.1,6.8
		c0,0.1,0.1,0.3,0.3,0.3h2.5c2.2,0,2.1-0.1,2.7-1.5c0.2-0.5,0.4-0.8,0.7-0.8c0.2,0,0.3,0.5,0.3,0.9c-0.1,0.9-0.1,1.4-0.1,2.1
		c0,0.8,0.1,1.3,0.1,2.1c0,0.6-0.2,0.9-0.4,0.9s-0.5-0.4-0.6-0.7c-0.4-1.4-0.8-1.6-2-1.7c-1-0.1-2.1-0.1-3.1-0.1
		c-0.1,0-0.4,0.3-0.4,0.4c-0.1,0.9-0.1,3.3-0.1,4.3c0,0.7,0,1.9,0.1,2.6c0.1,0.3,0.4,0.7,0.7,0.7c0.5,0.1,1.5,0.2,2.5,0.2
		c0.9,0,2.1,0,2.9-0.3c0.9-0.3,1.8-1.1,2.5-2.3c0.4-0.8,0.7-1.1,1-1.1c0.3,0,0.3,0.7,0.2,0.9c0,0.2-0.9,3.1-1.2,3.6
		c-0.1,0.2-0.6,0.4-0.7,0.4c-0.3,0-8-0.2-10.4-0.2c-2.1,0-2.4,0.2-3.5,0.2c-0.6,0-1.1-0.1-1.1-0.4c0-0.3,0.4-0.5,0.9-0.6
		c1.6-0.4,2-0.7,2.1-2.4c0.1-1.3,0.3-3.7,0.3-7.5c0-3.7,0-5.1,0-6c-0.1-1.1-0.3-1.7-1.6-2c-0.7-0.1-1-0.2-1-0.6c0-0.3,0.5-0.5,1-0.5
		c1.5,0,4,0.1,5.6,0.1H223.9z"/>
	<path fill="#231F20" d="M243,7.6c0.1,0,0.4,0.5,0.4,0.6c0,0.4,0.3,2.8,0.3,2.9c0,0.5-0.1,0.8-0.3,0.8c-0.2,0-0.7-0.3-0.9-0.7
		c-0.3-1-1-1.9-1.3-2.2c-0.7-0.6-1.5-0.9-2.5-0.9c-1.5,0-3.2,1.2-3.2,3.2c0,1.8,1.4,2.8,4.2,4.6c3.8,2.3,4.6,4.3,4.6,6.2
		c0,1.6-0.9,3.5-2.7,4.6c-1.1,0.7-2.9,1.1-4.4,1.1c-1.8,0-3.2-0.3-4.5-0.8c-0.3-0.1-0.8-0.8-0.8-0.9c-0.2-1.1-0.5-2.4-0.5-3.3
		c0-0.2,0.3-0.7,0.5-0.7c0.2,0,0.7,0.7,1.2,1.7c0.9,1.9,2.7,2.9,4.3,2.9c1.4,0,3.2-1.1,3.2-3.1c0-1.3-0.7-2.6-3.5-4.4
		c-3.2-2.1-4.9-3.8-4.9-6.6c0-1.8,0.9-3.3,1.9-4.1c1-0.9,2.5-1.5,4.9-1.5C240.6,7.1,242.2,7.4,243,7.6"/>
	<path fill="#231F20" d="M258.7,7.6c0.1,0,0.4,0.5,0.4,0.6c0,0.4,0.3,2.8,0.3,2.9c0,0.5-0.1,0.8-0.3,0.8c-0.2,0-0.7-0.3-0.9-0.7
		c-0.3-1-1-1.9-1.3-2.2c-0.7-0.6-1.5-0.9-2.5-0.9c-1.5,0-3.2,1.2-3.2,3.2c0,1.8,1.4,2.8,4.2,4.6c3.8,2.3,4.6,4.3,4.6,6.2
		c0,1.6-0.9,3.5-2.7,4.6c-1.1,0.7-2.9,1.1-4.4,1.1c-1.8,0-3.2-0.3-4.5-0.8c-0.3-0.1-0.8-0.8-0.8-0.9c-0.3-1.1-0.5-2.4-0.5-3.3
		c0-0.2,0.3-0.7,0.5-0.7c0.2,0,0.7,0.7,1.2,1.7c0.9,1.9,2.7,2.9,4.3,2.9c1.4,0,3.2-1.1,3.2-3.1c0-1.3-0.7-2.6-3.5-4.4
		c-3.2-2.1-4.9-3.8-4.9-6.6c0-1.8,0.9-3.3,1.9-4.1c1-0.9,2.5-1.5,4.9-1.5C256.2,7.1,257.8,7.4,258.7,7.6"/>
</g>
</svg>
